<svg width="14" height="15" viewBox="0 0 14 15" fill="none" xmlns="http://www.w3.org/2000/svg">
<path d="M13.0071 2.69679C11.9337 2.59012 10.8604 2.51012 9.78039 2.45012V2.44346L9.63373 1.57679C9.53372 0.963457 9.38706 0.043457 7.82706 0.043457H6.08039C4.52706 0.043457 4.38039 0.923457 4.27372 1.57012L4.13372 2.42346C3.51373 2.46346 2.89372 2.50346 2.27372 2.56346L0.913725 2.69679C0.633725 2.72346 0.433725 2.97012 0.460391 3.24346C0.487058 3.51679 0.727058 3.71679 1.00706 3.69012L2.36706 3.55679C5.86039 3.21012 9.38039 3.34346 12.9137 3.69679H12.9671C13.2204 3.69679 13.4404 3.50346 13.4671 3.24346C13.4771 3.11028 13.4346 2.97848 13.3486 2.87629C13.2626 2.7741 13.14 2.70966 13.0071 2.69679ZM11.7804 4.63679C11.6204 4.47012 11.4004 4.37679 11.1737 4.37679H2.74706C2.52039 4.37679 2.29372 4.47012 2.14039 4.63679C1.98706 4.80346 1.90039 5.03012 1.91372 5.26346L2.32706 12.1035C2.40039 13.1168 2.49372 14.3835 4.82039 14.3835H9.10039C11.4271 14.3835 11.5204 13.1235 11.5937 12.1035L12.0071 5.27012C12.0204 5.03012 11.9337 4.80346 11.7804 4.63679ZM8.06706 11.0435H5.84706C5.57372 11.0435 5.34706 10.8168 5.34706 10.5435C5.34706 10.2701 5.57372 10.0435 5.84706 10.0435H8.06706C8.34039 10.0435 8.56706 10.2701 8.56706 10.5435C8.56706 10.8168 8.34039 11.0435 8.06706 11.0435ZM8.62706 8.37679H5.29373C5.02039 8.37679 4.79373 8.15012 4.79373 7.87679C4.79373 7.60346 5.02039 7.37679 5.29373 7.37679H8.62706C8.90039 7.37679 9.12706 7.60346 9.12706 7.87679C9.12706 8.15012 8.90039 8.37679 8.62706 8.37679Z" fill="#E90000"/>
</svg>
