<svg width="16" height="15" viewBox="0 0 16 15" fill="none" xmlns="http://www.w3.org/2000/svg">
<path d="M9.60159 1.38303L10.1883 0.796367C10.8816 0.103034 12.0883 0.103034 12.7816 0.796367L13.2549 1.2697C13.4257 1.43902 13.5612 1.64049 13.6537 1.86247C13.7462 2.08445 13.7939 2.32255 13.7939 2.56303C13.7939 2.80352 13.7462 3.04162 13.6537 3.2636C13.5612 3.48558 13.4257 3.68704 13.2549 3.85637L12.6683 4.44303L9.60159 1.37637V1.38303ZM8.89492 2.0897L2.82159 8.16303C2.62826 8.35637 2.50826 8.6097 2.48826 8.88303L2.30826 10.8364C2.28826 11.083 2.37492 11.323 2.54826 11.503C2.70826 11.663 2.91492 11.7497 3.13492 11.7497H3.20826L5.16159 11.5697C5.43492 11.543 5.68825 11.423 5.88159 11.2297L11.9549 5.15637L8.88826 2.0897H8.89492ZM15.1283 13.8764C15.1283 13.603 14.9016 13.3764 14.6283 13.3764H1.29492C1.02159 13.3764 0.794922 13.603 0.794922 13.8764C0.794922 14.1497 1.02159 14.3764 1.29492 14.3764H14.6283C14.9016 14.3764 15.1283 14.1497 15.1283 13.8764Z" fill="#36469A"/>
</svg>
