<svg xmlns="http://www.w3.org/2000/svg" viewBox="0 0 911.66 154.02"><g id="Layer_2" data-name="Layer 2"><g id="Layer_1-2" data-name="Layer 1"><path d="M203.79,38.1c-6.12,0-12.23,0-18.34,0a1.75,1.75,0,0,0-1.79,1.06q-20.37,35.68-40.77,71.35c-1.44,2.52-2.89,5-4.41,7.66l-.61-1c-3.69-6.5-7.34-13-11.07-19.48Q109.34,67.28,91.82,37a11.94,11.94,0,0,1-1.07-10.26,12.08,12.08,0,0,1,16.33-7.54c6,2.57,9.27,9.45,6.79,15.54a54.3,54.3,0,0,1-3.13,6c-.63,1.14-1,2.16,0,3.28a9,9,0,0,1,.84,1.45l8.47,14.62.54-.9c2.6-4.44,5.18-8.89,7.79-13.32a29.2,29.2,0,0,0,4.08-14.5,31.31,31.31,0,0,0-3.7-15.47A28.8,28.8,0,0,0,114,2.46a35.05,35.05,0,0,0-9-2.32h0a22.17,22.17,0,0,0-4.38-.06L99.42.25c-.93.2-1.86.32-2.78.5-8.88,1.7-15.49,6.66-20.1,14.32a29.57,29.57,0,0,0-4.1,15.16,30.65,30.65,0,0,0,4.28,16.23c4.88,8.31,9.64,16.69,14.46,25q23.34,40.41,46.69,80.82c.22.39.46.77.86,1.44L204.79,38.1Z"/><path d="M0,38.41c6.76,0,13.34,0,19.92,0a1.4,1.4,0,0,1,.93.67q9.21,15.82,18.38,31.68Q52.66,94.1,66,117.45l.46.76L84.4,86.6c2.21,3.84,4.31,7.45,6.36,11.08,1.12,2,2.14,4.06,3.24,6.07a1.47,1.47,0,0,1,0,1.62q-12.12,21.39-24.19,42.81c-1.08,1.91-2.18,3.82-3.33,5.84Z"/><path d="M340.94,153.76q-19.21,0-31.55-15.31-12.51,15.31-31.71,15.31a40.27,40.27,0,0,1-40.3-40.3v-69A17.35,17.35,0,0,1,254.72,61.6v51.55a22.54,22.54,0,0,0,6.48,16.24,22.91,22.91,0,0,0,32.8.23,22,22,0,0,0,6.64-16.16v-69H318v68.73a22.37,22.37,0,0,0,6.56,16.24,22.87,22.87,0,0,0,16.24,7,23.17,23.17,0,0,0,16.56-6.8,21.88,21.88,0,0,0,6.71-16.16V61.6a17.35,17.35,0,0,1,17.18-17.18v69a40.27,40.27,0,0,1-40.29,40.3Z"/><path d="M426.53,136.42a19.81,19.81,0,0,0,14.06-5.62q5.63,4.83,4.53,11.48t-8,9.45a32.33,32.33,0,0,1-10.62,2A36.14,36.14,0,0,1,400,142.82Q389.51,132.2,389,116.27q.46-15.78,11-26.32t26.32-11q15.93.32,26.56,10.93a36,36,0,0,1,10.93,26.4v.16a5.28,5.28,0,0,1-1.72,4,5.71,5.71,0,0,1-4.06,1.64H407.16a21.49,21.49,0,0,0,5,8.59A19.86,19.86,0,0,0,426.53,136.42Zm-14.37-34.36a21.49,21.49,0,0,0-5,8.59h38.58a20,20,0,0,0-19.21-14.53A19.57,19.57,0,0,0,412.16,102.06Z"/><path d="M546.48,115.33v.94a37.33,37.33,0,0,1-37.33,37.49h-1.4a20.85,20.85,0,0,1-2.5-.16,1.11,1.11,0,0,1-.47-.16h-.94a1.18,1.18,0,0,1-.46-.15,2.77,2.77,0,0,1-.94-.16H502a.66.66,0,0,0-.47-.15c-.42-.11-.88-.21-1.4-.32a1.82,1.82,0,0,0-.79-.15,13.15,13.15,0,0,0-1.71-.47.49.49,0,0,0-.32-.16l-.62-.31h-.47a1.73,1.73,0,0,0-.47-.31h-.31q-.78-.31-1.41-.63a1.65,1.65,0,0,1-.46-.31,49.58,49.58,0,0,1-4.69-2.5.49.49,0,0,0-.31-.16c-.11-.1-.21-.2-.31-.31a1.73,1.73,0,0,1-.47-.31.45.45,0,0,1-.32-.16,5.44,5.44,0,0,0-.78-.62.43.43,0,0,1-.31-.16c-.1-.1-.21-.2-.31-.31l-.94-.62a.49.49,0,0,1-.16-.32,21.55,21.55,0,0,1-2.34-2,.45.45,0,0,1-.15-.31l-1.88-1.87a.47.47,0,0,0-.15-.32l-.32-.31-.31-.31c-.42-.52-.83-1.09-1.25-1.72a6.41,6.41,0,0,0-.47-.78,2.58,2.58,0,0,1-.47-.63,1.82,1.82,0,0,0-.31-.46c-.21-.42-.42-.78-.62-1.1a2.12,2.12,0,0,0-.32-.47c-.52-1-1-2.13-1.56-3.28a.43.43,0,0,1-.15-.31,1.11,1.11,0,0,1-.16-.47.61.61,0,0,1-.16-.47,5.25,5.25,0,0,1-.31-.78h-.16c-.1-.41-.21-.83-.31-1.25-.21-.62-.41-1.25-.62-1.87a3.14,3.14,0,0,0-.16-.94c-.1-.41-.21-.88-.31-1.4a1.67,1.67,0,0,1-.16-.78,1.27,1.27,0,0,1-.15-.47v-.47a.67.67,0,0,0-.16-.47,7,7,0,0,0-.16-1.41v-.93a28.1,28.1,0,0,1-.15-3V44.42h8.59a8.59,8.59,0,0,1,6.17,2.5A8.17,8.17,0,0,1,489,53V84.87a35.52,35.52,0,0,1,20.14-5.93,36,36,0,0,1,26.4,10.93Q545.71,100,546.48,115.33Zm0,0A37.6,37.6,0,0,0,535,89.4a35.64,35.64,0,0,0-25.85-10.46A36.19,36.19,0,0,0,489,84.72v.15a35.52,35.52,0,0,1,20.14-5.93,36,36,0,0,1,26.4,10.93Q545.71,100,546.48,115.33Zm-37.79,21.09a19.79,19.79,0,0,0,14.6-5.86,20.23,20.23,0,0,0-13.82-34.44,20.8,20.8,0,0,0-14.69,5.94A20.21,20.21,0,0,0,489,116.74a20,20,0,0,0,19.68,19.68Z"/><path d="M642.7,59.57a49.82,49.82,0,0,1,15.15,36.55v57.64a17.33,17.33,0,0,1-17.18-17.34V96.12a34.52,34.52,0,0,0-69,0v40.3a17.33,17.33,0,0,1-17.34,17.34V96.12a51.73,51.73,0,0,1,51.86-51.7A49.82,49.82,0,0,1,642.7,59.57Z"/><path d="M729.54,89.87a36,36,0,0,1,10.94,26.4,37.41,37.41,0,1,1-74.82,0,37.44,37.44,0,0,1,63.88-26.4Zm-6.25,26.4a20.13,20.13,0,1,0-5.93,14.29A19.39,19.39,0,0,0,723.29,116.27Z"/><path d="M807.64,140.32a20.19,20.19,0,0,1-19.06,13.44A19.51,19.51,0,0,1,777,150.09a20.06,20.06,0,0,1-7.34-9.77l-21.4-61.38a24.86,24.86,0,0,1,14.84,4.69,26.5,26.5,0,0,1,9.53,12.49l10.93,31.55c1.25,2.4,2.94,3.59,5.08,3.59s3.83-1.19,5.08-3.59l10.93-31.55A25.71,25.71,0,0,1,829,78.94Z"/><path d="M911.51,113.46a26.45,26.45,0,0,1,.15,2.81v37.49h-11.4q-4.85,0-5.78-5.94a37.46,37.46,0,0,1-46.7-5q-10.47-10.62-10.94-26.55.48-15.78,11-26.32t26.31-11q15.95.32,26.56,10.93A37,37,0,0,1,911.51,113.46Zm-36.87,23a19.9,19.9,0,0,0,13.83-5.86,20.48,20.48,0,0,0,6-13.82,20.77,20.77,0,0,0-5.94-14.68,19.36,19.36,0,0,0-14.21-5.94,20,20,0,0,0-20.15,20.15A19.86,19.86,0,0,0,860,130.64,20.24,20.24,0,0,0,874.64,136.42Z"/></g></g></svg>