<svg width="205" height="155" viewBox="0 0 205 155" fill="none" xmlns="http://www.w3.org/2000/svg">
<path d="M203.789 38.1005C197.669 38.1005 191.559 38.1005 185.449 38.1005C185.077 38.0625 184.702 38.1449 184.38 38.3357C184.058 38.5265 183.805 38.8156 183.659 39.1605C170.079 62.9472 156.489 86.7305 142.889 110.511C141.449 113.031 139.999 115.511 138.479 118.171L137.869 117.171C134.179 110.671 130.529 104.171 126.799 97.6905C115.159 77.4172 103.499 57.1872 91.8194 37.0005C90.8854 35.4791 90.3044 33.7676 90.1192 31.992C89.9341 30.2164 90.1494 28.4219 90.7494 26.7405C91.2484 25.1186 92.0836 23.62 93.2004 22.3424C94.3173 21.0648 95.6908 20.0368 97.2314 19.3254C98.7721 18.6141 100.445 18.2353 102.142 18.2138C103.839 18.1923 105.521 18.5285 107.079 19.2005C113.079 21.7705 116.349 28.6505 113.869 34.7405C112.952 36.8037 111.906 38.8075 110.739 40.7405C110.109 41.8805 109.739 42.9005 110.739 44.0205C111.064 44.4767 111.345 44.9621 111.579 45.4705L120.049 60.0905L120.589 59.1905C123.189 54.7505 125.769 50.3005 128.379 45.8705C130.984 41.4772 132.391 36.4775 132.459 31.3705C132.578 25.9813 131.304 20.6527 128.759 15.9005C125.599 9.80415 120.364 5.03762 113.999 2.46052C111.116 1.2911 108.089 0.510907 104.999 0.140522C103.545 -0.0240184 102.078 -0.0441165 100.619 0.0805217L99.4194 0.250522C98.4894 0.450522 97.5594 0.570522 96.6394 0.750522C87.7594 2.45052 81.1494 7.41052 76.5394 15.0705C73.8313 19.6619 72.4147 24.9 72.4394 30.2305C72.3281 35.9334 73.8104 41.5542 76.7194 46.4605C81.5994 54.7705 86.3594 63.1505 91.1794 71.4605C106.739 98.4005 122.303 125.341 137.869 152.281C138.089 152.671 138.329 153.051 138.729 153.721L204.789 38.1005H203.789Z" fill="black"/>
<path d="M0 38.4102C6.76 38.4102 13.34 38.4102 19.92 38.4102C20.1135 38.4499 20.2964 38.5301 20.4567 38.6456C20.617 38.7611 20.751 38.9092 20.85 39.0802C26.99 49.6268 33.1167 60.1868 39.23 70.7602C48.1833 86.3202 57.1067 101.883 66 117.45L66.46 118.21L84.4 86.6002C86.61 90.4402 88.71 94.0502 90.76 97.6802C91.88 99.6802 92.9 101.74 94 103.75C94.1587 103.99 94.2433 104.272 94.2433 104.56C94.2433 104.848 94.1587 105.13 94 105.37C85.92 119.63 77.8567 133.9 69.81 148.18C68.73 150.09 67.63 152 66.48 154.02L0 38.4102Z" fill="black"/>
</svg>
